<svg width="28" height="27" viewBox="0 0 28 27" fill="none" xmlns="http://www.w3.org/2000/svg">
<path d="M9.71148 12.3927C8.19548 12.3927 6.96748 11.1647 6.96748 9.64872C6.96748 8.13272 8.19548 6.90472 9.71148 6.90472C11.2275 6.90472 12.4555 8.13272 12.4555 9.64872C12.4555 11.1647 11.2275 12.3927 9.71148 12.3927ZM8.06548 13.4907C6.55148 13.4907 5.32048 14.7207 5.32048 16.2347V17.8807H7.51648V16.2347C7.51648 15.9327 7.76348 15.6857 8.06548 15.6857H11.3575C11.6595 15.6857 11.9065 15.9327 11.9065 16.2347V17.8807H14.1025V16.2347C14.1025 14.7207 12.8715 13.4907 11.3575 13.4907H8.06548ZM19.0415 4.46572V9.34372L23.4325 6.90472L19.0415 4.46572ZM14.1025 6.90472C14.1025 3.27272 17.0555 0.318718 20.6885 0.318718C24.3205 0.318718 27.2735 3.27272 27.2735 6.90472C27.2735 10.5367 24.3205 13.4907 20.6885 13.4907C17.0555 13.4907 14.1025 10.5367 14.1025 6.90472ZM16.2975 6.90472C16.2975 9.32572 18.2665 11.2947 20.6885 11.2947C23.1095 11.2947 25.0785 9.32572 25.0785 6.90472C25.0785 4.48272 23.1095 2.51372 20.6885 2.51372C18.2665 2.51372 16.2975 4.48272 16.2975 6.90472ZM25.0785 20.0767H3.12548V5.25772C3.12548 4.95472 3.37248 4.70872 3.67448 4.70872H12.1945C12.3955 3.92972 12.6975 3.19372 13.0915 2.51372H3.67448C2.16048 2.51372 0.930481 3.74572 0.930481 5.25772V22.2717H13.0045V24.4667H7.51648V26.6627H20.6885V24.4667H15.1995V22.2717H27.2735V12.6987C26.6465 13.4127 25.9065 14.0217 25.0785 14.5017V20.0767Z" fill="#20263E"/>
</svg>
