<svg width="30" height="30" viewBox="0 0 30 30" fill="none" xmlns="http://www.w3.org/2000/svg">
<path d="M29.5635 24.7687V7.64172C29.5635 5.61372 27.9205 3.97072 25.8935 3.97072H24.6695C24.6695 1.94372 23.0265 0.30072 20.9995 0.30172C20.6585 0.30172 20.3195 0.349718 19.9915 0.442719L16.3215 1.49272C15.7875 1.64472 15.2955 1.91772 14.8825 2.28972C14.4705 1.91772 13.9785 1.64472 13.4445 1.49272L9.77351 0.442719C7.82451 -0.114281 5.79352 1.01472 5.23652 2.96372C5.14352 3.29172 5.09551 3.63072 5.09551 3.97072H3.87251C1.84551 3.97072 0.202515 5.61372 0.202515 7.64172V24.7687H13.6595V27.2157H8.76551V29.6627H20.9995V27.2157H16.1065V24.7687H29.5635ZM16.1065 5.02072C16.1065 4.47472 16.4685 3.99572 16.9935 3.84472L20.6635 2.79672C20.7725 2.76472 20.8855 2.74872 20.9995 2.74772C21.6755 2.74772 22.2235 3.29572 22.2235 3.97072V11.6127L16.1065 13.3597V5.02072ZM7.54251 3.97072C7.54351 3.29572 8.09251 2.74872 8.76752 2.74972C8.88052 2.74972 8.99351 2.76572 9.10251 2.79672L12.7725 3.84472C13.2975 3.99572 13.6595 4.47472 13.6595 5.02072V13.3597L7.54251 11.6127V3.97072ZM2.64851 7.64172C2.64851 6.96572 3.19651 6.41772 3.87251 6.41772H5.09551V13.4567L14.8825 16.2537L24.6695 13.4567V6.41772H25.8935C26.5685 6.41772 27.1165 6.96572 27.1165 7.64172V22.3217H2.64851V7.64172Z" fill="white"/>
</svg>
