<svg width="108" height="84" viewBox="0 0 108 84" fill="none" xmlns="http://www.w3.org/2000/svg">
<mask id="mask0_2_1939" style="mask-type:luminance" maskUnits="userSpaceOnUse" x="11" y="29" width="41" height="39">
<path d="M11.2578 35.2925C12.1578 39.2925 13.8578 42.3925 18.5578 44.2925C19.2578 44.5925 20.0578 44.5922 20.7578 44.9922C22.5578 46.0922 19.7578 46.9925 18.9578 47.2925C13.1578 48.0925 14.7578 53.5923 15.7578 58.0923C17.2578 61.8923 18.5578 64.8926 19.3578 65.8926C21.9578 69.1926 40.9578 67.5923 40.9578 67.5923C40.9578 67.5923 41.1578 67.4924 41.8578 67.1924C41.8578 66.9924 41.8578 66.6926 41.9578 66.3926C42.0578 65.2926 42.6578 64.8926 43.4578 64.3926C44.2578 63.7926 45.4578 62.3923 44.9578 61.0923C44.5578 60.1923 42.9578 59.4922 42.0578 58.9922C38.7578 56.8922 42.9578 57.1925 44.4578 56.7925C44.9578 56.6925 46.2578 56.6923 46.4578 56.0923C46.8578 55.6923 46.6578 54.4922 46.5578 53.9922C46.0578 51.9922 45.0578 48.0924 48.2578 48.1924C50.8578 47.8924 51.8578 46.8924 51.8578 45.6924C51.8578 42.9924 47.6578 39.0922 45.9578 36.9922C43.2578 34.2922 41.9578 32.7925 41.5578 29.7925C37.4578 30.4925 18.2578 33.8925 11.2578 35.2925Z" fill="white"/>
</mask>
<g mask="url(#mask0_2_1939)">
<path d="M1426.43 -4500.51L1731.68 402.583L-200.91 522.9L-506.161 -4380.2L1426.43 -4500.51Z" fill="url(#paint0_linear_2_1939)"/>
</g>
<mask id="mask1_2_1939" style="mask-type:luminance" maskUnits="userSpaceOnUse" x="56" y="39" width="6" height="10">
<path d="M59.6579 48.1924C60.3579 48.1924 60.7579 48.2923 61.1579 48.5923C61.0579 48.3923 60.9579 48.0926 60.9579 47.8926C60.9579 46.9926 61.1579 44.7925 60.8579 43.2925C60.6579 41.9925 60.0579 39.7924 60.0579 39.1924C56.9579 42.5924 53.0579 47.3924 59.6579 48.1924Z" fill="white"/>
</mask>
<g mask="url(#mask1_2_1939)">
<path d="M1122.11 1063.82L-2095.93 -491.822L103.41 -5041.43L3321.44 -3485.79L1122.11 1063.82Z" fill="url(#paint1_linear_2_1939)"/>
</g>
<mask id="mask2_2_1939" style="mask-type:luminance" maskUnits="userSpaceOnUse" x="64" y="0" width="44" height="41">
<path d="M67.7578 20.2925C66.1578 23.8925 66.8577 27.8923 66.0577 31.5923C65.7577 32.5923 65.1578 33.4925 64.4578 34.2925C65.8578 34.4925 67.4578 34.6922 69.4578 34.9922C74.4578 35.6922 88.4578 38.8926 94.2578 40.8926C96.3578 38.1926 96.9577 34.6923 97.5577 30.5923L99.3578 21.1924C99.9578 17.6924 101.558 14.4926 103.258 11.3926C104.358 8.59258 110.958 0.892383 104.958 0.192383C91.0578 2.39238 74.2578 6.29248 67.7578 20.2925Z" fill="white"/>
</mask>
<g mask="url(#mask2_2_1939)">
<path d="M-717.196 -4344.24L1414.19 -4572.32L1942.71 366.622L-188.675 594.703L-717.196 -4344.24Z" fill="url(#paint2_linear_2_1939)"/>
</g>
<mask id="mask3_2_1939" style="mask-type:luminance" maskUnits="userSpaceOnUse" x="65" y="10" width="27" height="24">
<path d="M90.3578 10.5923C88.5578 11.5923 86.4577 12.1925 84.6577 13.2925C83.8577 13.7925 82.2577 14.9924 81.1577 15.6924C79.9577 16.4924 72.1578 20.2924 70.3578 21.1924C69.3578 21.7924 67.9578 22.1923 66.9578 22.5923C66.3578 25.4923 66.6577 28.5923 66.0577 31.5923C65.8577 32.0923 65.6578 32.4926 65.4578 32.8926C66.6578 33.0926 70.6578 33.5926 73.7578 33.3926C77.4578 33.1926 82.9577 32.6926 84.1577 32.8926C85.4577 32.9926 85.9578 33.0923 85.9578 33.0923C85.9578 33.0923 85.0578 32.4923 85.9578 31.5923C87.1578 30.5923 88.7577 30.2926 90.0577 29.3926C90.7577 28.8926 91.2578 28.0923 91.3578 27.0923C91.3578 26.0923 90.9577 25.2926 90.5577 24.3926C89.7577 22.5926 88.6577 20.1924 89.1577 18.1924C89.5577 16.3924 91.3577 14.5922 91.6577 13.9922C91.8577 13.5922 91.8578 13.1923 91.8578 12.5923V12.4922C91.8578 12.1922 91.8578 11.8923 91.8578 11.5923C91.7578 10.8923 91.3578 10.3926 90.8578 10.3926C90.7578 10.3926 90.5578 10.4923 90.3578 10.5923Z" fill="white"/>
</mask>
<g mask="url(#mask3_2_1939)">
<path d="M-207.242 -4398.81H1432.76V421.193H-207.242V-4398.81Z" fill="url(#paint3_linear_2_1939)"/>
</g>
<mask id="mask4_2_1939" style="mask-type:luminance" maskUnits="userSpaceOnUse" x="59" y="34" width="36" height="37">
<path d="M67.4578 34.0923C66.4578 34.1923 65.4578 34.1924 64.5578 34.1924C63.6578 35.1924 62.7578 36.0922 61.9578 36.9922C61.4578 37.5922 60.6578 38.4926 59.7578 39.3926C60.0578 40.5926 60.2578 41.8923 60.4578 43.0923C60.8578 44.8923 60.6578 46.5926 60.9578 48.3926C62.5578 49.2926 61.7578 52.2922 61.3578 53.9922C61.2578 54.4922 61.0578 55.6923 61.4578 56.0923C61.6578 56.6923 62.9578 56.6925 63.4578 56.7925L65.4578 56.9922C66.9578 57.1922 68.1578 57.5922 65.8578 58.9922C65.0578 59.4922 63.4578 60.1923 62.9578 61.0923C62.4578 62.3923 63.6578 63.8926 64.4578 64.3926C65.2578 64.8926 65.8578 65.3926 66.0578 66.3926C66.2578 67.5926 65.8578 69.1923 65.9578 70.5923C66.3578 70.5923 66.8578 70.4925 67.2578 70.2925C70.6578 69.3925 73.7578 67.5923 76.2578 65.0923C79.1578 62.1923 82.2578 59.2922 85.2578 56.4922C86.8578 54.9922 88.1578 53.2925 89.1578 51.2925C89.6578 50.3925 90.1578 49.3926 90.6578 48.3926C90.7578 48.1926 90.8578 47.9925 90.9578 47.7925C90.4578 47.5925 89.8578 47.3925 89.0578 47.2925C85.3578 46.1925 86.1578 44.9924 89.4578 44.1924C92.1578 43.1924 93.8578 41.6925 94.9578 39.7925C86.1578 36.6925 77.1578 34.0923 67.7578 34.0923C67.6578 34.0923 67.5578 34.0923 67.4578 34.0923Z" fill="white"/>
</mask>
<g mask="url(#mask4_2_1939)">
<path d="M2000.19 -4331.05L1409.7 614.261L-774.674 353.439L-184.189 -4591.88L2000.19 -4331.05Z" fill="url(#paint4_linear_2_1939)"/>
</g>
<mask id="mask5_2_1939" style="mask-type:luminance" maskUnits="userSpaceOnUse" x="68" y="38" width="26" height="24">
<path d="M68.9577 38.7925C68.7577 39.5925 68.7577 40.9926 70.8577 43.8926C72.8577 46.6926 84.8577 57.9923 88.9577 60.0923C90.0577 60.5923 90.9577 60.8923 91.7577 61.0923C91.7577 60.9923 91.7577 60.7924 91.7577 60.6924C92.2577 56.1924 96.0577 48.1925 89.0577 47.2925C85.3577 46.1925 86.1577 44.9924 89.4577 44.1924C91.0577 43.5924 92.3577 42.7925 93.3577 41.7925C91.6577 41.4925 88.1577 40.7924 86.0577 40.6924C81.6577 40.2924 77.1577 39.5923 72.8577 38.5923C72.3577 38.4923 71.2577 38.0923 70.2577 38.0923C69.6577 38.0923 69.0577 38.2925 68.9577 38.7925Z" fill="white"/>
</mask>
<g mask="url(#mask5_2_1939)">
<path d="M1077.65 1096.68L-2192.51 -622.491L147.87 -5074.29L3418.02 -3355.12L1077.65 1096.68Z" fill="url(#paint5_linear_2_1939)"/>
</g>
<mask id="mask6_2_1939" style="mask-type:luminance" maskUnits="userSpaceOnUse" x="60" y="37" width="32" height="7">
<path d="M61.3579 37.6924C61.1579 37.8924 61.0579 38.0925 60.8579 38.2925C60.8579 38.2925 63.7579 37.4923 66.6579 38.0923C69.5579 38.5923 73.7579 39.9923 75.9579 40.5923C78.0579 41.1923 83.2579 42.0925 85.0579 42.2925C86.4579 42.4925 89.3579 43.1923 90.8579 43.5923C91.1579 43.3923 91.3579 43.2924 91.5579 43.1924C90.6579 42.9924 87.3579 42.1923 85.6579 42.0923C83.7579 41.8923 77.0579 40.5926 74.8579 39.8926C72.6579 39.0926 68.1579 37.5922 66.1579 37.4922C65.8579 37.4922 65.5579 37.4922 65.2579 37.4922C63.7579 37.4922 62.1579 37.5924 61.3579 37.6924Z" fill="white"/>
</mask>
<g mask="url(#mask6_2_1939)">
<path d="M1122.11 1063.82L-2095.93 -491.821L103.41 -5041.43L3321.44 -3485.79L1122.11 1063.82Z" fill="url(#paint6_linear_2_1939)"/>
</g>
<mask id="mask7_2_1939" style="mask-type:luminance" maskUnits="userSpaceOnUse" x="63" y="34" width="27" height="4">
<path d="M63.7579 35.0923C63.6579 35.2923 63.4579 35.3922 63.3579 35.4922C64.0579 35.2922 65.3579 35.1925 67.4579 35.2925C71.3579 35.3925 74.6579 35.8925 76.5579 36.2925C78.4579 36.6925 82.8579 37.3923 84.6579 37.5923C86.3579 37.7923 89.5579 37.9922 89.5579 37.9922L88.3579 37.5923C88.3579 37.5923 83.1579 37.3923 79.6579 36.5923C76.0579 35.7923 72.6579 35.1926 70.1579 34.8926C69.3579 34.8926 68.6579 34.7925 67.9579 34.7925C66.4579 34.7925 64.9579 34.9923 63.7579 35.0923Z" fill="white"/>
</mask>
<g mask="url(#mask7_2_1939)">
<path d="M1122.1 1063.82L-2095.93 -491.825L103.411 -5041.43L3321.45 -3485.79L1122.1 1063.82Z" fill="url(#paint7_linear_2_1939)"/>
</g>
<mask id="mask8_2_1939" style="mask-type:luminance" maskUnits="userSpaceOnUse" x="65" y="41" width="32" height="43">
<path d="M68.0578 43.2925C67.6578 45.0925 67.7578 47.9924 68.5578 52.1924C69.2578 56.3924 69.6578 57.7926 69.0578 60.8926C68.3578 63.9926 66.1578 66.5924 66.0578 68.6924C65.8578 70.7924 65.8578 71.8925 66.7578 72.7925C66.8578 72.7925 66.8578 72.8922 66.9578 72.9922C68.1578 73.9922 70.0578 73.9925 71.5578 73.7925C73.8578 73.4925 76.2578 73.2924 78.5578 73.1924C80.2578 73.0924 82.3578 72.7926 83.9578 73.3926C86.8578 74.5926 88.9578 76.9926 90.8578 79.3926C91.8578 80.5926 93.3578 84.8923 95.5578 83.0923C96.4578 82.3923 96.5578 80.5926 95.4578 79.8926C93.1578 78.5926 91.2578 75.9926 90.6578 73.3926C90.4578 69.0926 91.0578 64.8924 91.7578 60.6924C91.8578 59.8924 92.0578 59.0924 92.2578 58.1924C91.0578 57.4924 87.8578 55.5926 86.5578 54.3926C84.9578 52.9926 79.5578 47.8926 78.4578 46.8926C77.6578 46.0926 76.8578 45.3924 76.0578 44.6924C74.9578 43.8924 73.8578 42.8925 72.5578 42.2925C72.0578 41.9925 71.3578 41.8926 70.5578 41.8926C69.4578 41.8926 68.3578 42.1925 68.0578 43.2925Z" fill="white"/>
</mask>
<g mask="url(#mask8_2_1939)">
<path d="M289.351 1174.72L-2421.89 -2939.31L936.165 -5152.34L3647.4 -1038.31L289.351 1174.72Z" fill="url(#paint8_linear_2_1939)"/>
</g>
<mask id="mask9_2_1939" style="mask-type:luminance" maskUnits="userSpaceOnUse" x="60" y="38" width="31" height="36">
<path d="M60.3579 38.7925C61.6579 40.3925 70.5579 50.0926 71.9579 51.3926C73.3579 52.7926 77.6579 56.5924 78.8579 57.6924C79.7579 58.4924 81.0579 59.9925 81.7579 60.7925C80.4579 60.0925 79.1579 59.3925 77.7579 58.7925C75.2579 57.6925 72.7579 56.6926 70.3579 55.3926C68.9579 54.5926 67.6579 53.5923 66.4579 52.5923C64.3579 50.9923 62.9579 49.8924 60.9579 48.1924C60.9579 48.1924 60.5579 48.0926 60.7579 48.3926C61.2579 48.5926 61.5579 48.8926 61.7579 49.3926C63.2579 50.6926 64.8579 51.9925 66.3579 53.2925C67.3579 54.0925 68.3579 54.8924 69.3579 55.6924C69.4579 55.6924 69.4579 55.7925 69.5579 55.7925C70.2579 56.3925 73.4579 58.9924 74.3579 62.1924C75.1579 64.8924 76.3579 70.6925 76.8579 73.2925C77.1579 73.2925 77.3579 73.2924 77.6579 73.1924C77.1579 71.1924 75.1579 63.1926 74.7579 61.8926C74.4579 60.7926 73.5579 59.0925 72.4579 57.7925C73.2579 58.2925 74.0579 58.6923 74.9579 59.0923C75.6579 59.3923 76.4579 59.6922 77.2579 59.9922C78.0579 61.2922 81.2579 66.4924 82.1579 68.6924C82.8579 70.2924 83.2579 72.0925 83.5579 73.2925C83.6579 73.2925 83.8579 73.3926 83.9579 73.3926C84.1579 73.4926 84.2579 73.4923 84.4579 73.5923C83.9579 72.1923 82.6579 67.7923 81.1579 65.0923C79.8579 62.8923 78.6579 61.0924 77.9579 60.1924C78.8579 60.5924 79.6579 60.8925 80.5579 61.2925C82.0579 61.9925 83.6579 62.8922 84.8579 63.9922C87.1579 66.1922 88.8579 69.0925 90.3579 71.7925C90.3579 71.7925 90.4579 71.8922 90.6579 71.9922C90.6579 71.1922 90.6579 70.4925 90.6579 69.7925C90.5579 69.4925 90.3579 69.2922 90.2579 68.9922C89.9579 68.4922 89.6579 67.9922 89.3579 67.4922C87.9579 65.5922 86.3579 63.9923 84.4579 62.5923C83.7579 62.0923 83.1579 61.5924 82.3579 61.1924C82.3579 61.0924 82.2579 60.8924 82.1579 60.6924C81.2579 59.2924 76.3579 54.7923 75.3579 53.5923C74.2579 52.4923 70.1579 48.6924 69.3579 47.6924C68.5579 46.6924 66.1579 43.4922 65.1579 42.4922C64.2579 41.4922 62.7579 39.9925 61.9579 39.2925C61.5579 38.8925 61.1579 38.4925 60.8579 38.2925C60.6579 38.4925 60.4579 38.6925 60.3579 38.7925Z" fill="white"/>
</mask>
<g mask="url(#mask9_2_1939)">
<path d="M1122.11 1063.81L-2095.93 -491.82L103.409 -5041.43L3321.44 -3485.8L1122.11 1063.81Z" fill="url(#paint9_linear_2_1939)"/>
</g>
<mask id="mask10_2_1939" style="mask-type:luminance" maskUnits="userSpaceOnUse" x="62" y="40" width="30" height="22">
<path d="M63.3579 40.5923C63.3579 40.5923 69.6579 44.5922 71.9579 46.9922C74.2579 49.3922 79.7579 53.6924 82.5579 55.6924C84.6579 57.0924 89.3579 60.1923 91.6579 61.5923C91.6579 61.2923 91.7579 60.9924 91.7579 60.6924C91.7579 60.6924 91.7579 60.6923 91.7579 60.5923C89.9579 59.4923 80.7579 53.4922 78.0579 51.4922C75.0579 49.1922 71.8579 46.3924 70.4579 45.1924C69.0579 43.9924 64.9579 41.1925 64.3579 40.7925C63.7579 40.4925 62.8579 40.0923 62.8579 40.0923L63.3579 40.5923Z" fill="white"/>
</mask>
<g mask="url(#mask10_2_1939)">
<path d="M1122.11 1063.81L-2095.93 -491.818L103.408 -5041.43L3321.44 -3485.8L1122.11 1063.81Z" fill="url(#paint10_linear_2_1939)"/>
</g>
<mask id="mask11_2_1939" style="mask-type:luminance" maskUnits="userSpaceOnUse" x="67" y="41" width="27" height="11">
<path d="M69.9578 41.8926C68.0578 41.9926 67.9578 43.4922 67.9578 43.4922C67.9578 43.4922 68.0577 43.6926 68.1577 43.3926C68.4577 42.3926 69.7578 42.2925 70.4578 42.2925C72.3578 42.2925 74.0578 42.7925 75.8578 43.2925C77.6578 43.6925 79.4577 44.2923 81.1577 45.0923C82.8577 45.9923 84.6578 46.9926 86.3578 47.8926C87.0578 48.1926 87.7578 48.5922 88.3578 48.9922C90.0578 49.7922 91.6578 50.6925 93.2578 51.7925C93.1578 51.4925 93.1577 51.1926 93.1577 50.8926C91.4577 50.0926 89.8578 49.1926 88.2578 48.3926C84.8578 46.6926 81.4578 44.5926 77.8578 43.3926C76.2578 42.7926 74.7577 42.2922 73.0577 41.9922C72.2577 41.8922 71.7577 41.7925 71.1577 41.7925C70.7577 41.7925 70.3578 41.7926 69.9578 41.8926Z" fill="white"/>
</mask>
<g mask="url(#mask11_2_1939)">
<path d="M1122.11 1063.82L-2095.93 -491.822L103.41 -5041.43L3321.44 -3485.79L1122.11 1063.82Z" fill="url(#paint11_linear_2_1939)"/>
</g>
<mask id="mask12_2_1939" style="mask-type:luminance" maskUnits="userSpaceOnUse" x="61" y="53" width="3" height="4">
<path d="M61.4578 53.8926C61.8578 54.5926 62.4578 55.5925 63.2578 56.7925C63.3578 56.7925 63.4578 56.7925 63.4578 56.7925H63.8578L61.5577 53.4922C61.4577 53.5922 61.4578 53.7926 61.4578 53.8926Z" fill="white"/>
</mask>
<g mask="url(#mask12_2_1939)">
<path d="M42.5754 1010.51L-1939.25 -3664.59L1182.94 -4988.12L3164.77 -313.028L42.5754 1010.51Z" fill="url(#paint12_linear_2_1939)"/>
</g>
<mask id="mask13_2_1939" style="mask-type:luminance" maskUnits="userSpaceOnUse" x="63" y="59" width="3" height="6">
<path d="M63.8579 60.0923L64.4579 64.3926C64.6579 64.4926 64.8579 64.6925 65.0579 64.7925C64.9579 63.5925 64.5579 60.9925 64.3579 59.7925C64.2579 59.8925 64.0579 59.9923 63.8579 60.0923Z" fill="white"/>
</mask>
<g mask="url(#mask13_2_1939)">
<path d="M42.5756 1010.51L-1939.25 -3664.59L1182.94 -4988.12L3164.77 -313.027L42.5756 1010.51Z" fill="url(#paint13_linear_2_1939)"/>
</g>
<mask id="mask14_2_1939" style="mask-type:luminance" maskUnits="userSpaceOnUse" x="64" y="59" width="7" height="15">
<path d="M64.9578 59.4922C66.5578 62.2922 68.2577 64.9923 68.5577 66.0923C69.1577 67.7923 69.3578 71.8926 69.3578 73.8926C69.6578 73.8926 69.8577 73.8926 70.0577 73.8926C70.0577 72.8926 70.0578 71.3925 69.8578 69.7925C69.6578 66.9925 68.4578 64.2922 67.4578 62.4922C67.0578 61.5922 66.1578 60.2924 65.4578 59.1924C65.2578 59.2924 65.0578 59.3922 64.9578 59.4922Z" fill="white"/>
</mask>
<g mask="url(#mask14_2_1939)">
<path d="M42.5754 1010.51L-1939.25 -3664.59L1182.94 -4988.12L3164.77 -313.028L42.5754 1010.51Z" fill="url(#paint14_linear_2_1939)"/>
</g>
<mask id="mask15_2_1939" style="mask-type:luminance" maskUnits="userSpaceOnUse" x="84" y="2" width="10" height="4">
<path d="M84.5579 5.39258C84.7579 5.49258 85.2579 5.69248 85.8579 5.79248C86.0579 5.79248 86.2579 5.89258 86.5579 5.89258H86.7579C87.5579 5.89258 88.3579 5.69258 89.2579 5.39258C90.6579 4.79258 91.3579 4.39238 92.0579 4.19238C92.6579 3.89238 93.4579 3.49248 93.4579 3.29248C93.4579 3.09248 93.4579 2.99258 93.1579 2.89258C92.9579 2.89258 92.8579 2.89238 92.6579 2.69238C89.8579 3.39238 87.1579 4.29258 84.5579 5.39258Z" fill="white"/>
</mask>
<g mask="url(#mask15_2_1939)">
<path d="M1451.96 -4398.73L1432.73 427.726L-226.445 421.116L-207.216 -4405.34L1451.96 -4398.73Z" fill="url(#paint15_linear_2_1939)"/>
</g>
<mask id="mask16_2_1939" style="mask-type:luminance" maskUnits="userSpaceOnUse" x="92" y="6" width="9" height="9">
<path d="M95.8577 6.99219C94.6577 6.99219 92.9577 7.69248 92.3577 8.79248C92.2577 8.89248 92.1577 9.09248 92.1577 9.29248C92.0577 9.69248 92.1577 10.0922 92.1577 10.4922C92.2577 10.9922 92.3577 11.3926 92.3577 11.8926C92.3577 12.5926 92.7577 12.8924 93.4577 13.1924C94.2577 13.6924 95.0577 13.8923 95.9577 14.0923C96.7577 14.2923 97.4577 14.4923 98.2577 14.5923C98.9577 14.6923 99.8577 14.7922 100.158 14.4922C100.658 14.0922 100.558 13.3926 100.258 12.8926C99.8577 12.2926 99.3577 11.7926 98.7577 11.3926C98.6577 11.2926 98.4577 11.1923 98.3577 11.0923C98.1577 10.7923 98.2577 10.2922 98.3577 9.99219C98.4577 9.39219 99.0577 8.59219 98.8577 7.99219C98.6577 7.09219 97.4577 6.89258 96.4577 6.89258C96.2577 6.89258 95.9577 6.89219 95.8577 6.99219Z" fill="white"/>
</mask>
<g mask="url(#mask16_2_1939)">
<path d="M1451.96 -4398.73L1432.73 427.726L-226.445 421.116L-207.216 -4405.34L1451.96 -4398.73Z" fill="url(#paint16_linear_2_1939)"/>
</g>
<mask id="mask17_2_1939" style="mask-type:luminance" maskUnits="userSpaceOnUse" x="89" y="14" width="12" height="10">
<path d="M91.8577 15.2925C90.6577 16.1925 90.1577 17.5923 90.0577 18.0923C89.9577 18.6923 89.5577 20.2923 90.8577 21.0923C92.1577 21.8923 94.9577 22.3926 94.9577 22.3926L98.9577 23.0923L99.3577 21.1924C99.5577 20.0924 99.8577 18.8925 100.258 17.7925C100.158 17.6925 100.058 17.5926 100.058 17.3926C99.8577 16.8926 99.1577 15.8923 98.5577 15.5923C98.0577 15.2923 96.5577 14.6923 95.6577 14.5923C95.2577 14.5923 94.9577 14.4922 94.5577 14.4922C93.6577 14.4922 92.7577 14.6925 91.8577 15.2925Z" fill="white"/>
</mask>
<g mask="url(#mask17_2_1939)">
<path d="M1451.96 -4398.73L1432.73 427.726L-226.445 421.116L-207.216 -4405.34L1451.96 -4398.73Z" fill="url(#paint17_linear_2_1939)"/>
</g>
<mask id="mask18_2_1939" style="mask-type:luminance" maskUnits="userSpaceOnUse" x="86" y="5" width="7" height="6">
<path d="M89.0579 5.89258C87.9579 6.09258 86.8579 6.79229 86.4579 7.09229C86.1579 7.29229 86.0579 7.59258 86.0579 7.89258C86.0579 8.09258 86.0579 8.19248 86.1579 8.29248C86.2579 8.59248 86.3579 9.29258 86.5579 9.89258C86.7579 10.4926 87.7579 10.5926 88.3579 10.3926C89.0579 10.0926 89.4579 9.59248 89.7579 9.29248C90.3579 8.79248 90.9579 8.29248 91.5579 7.79248C91.6579 7.69248 91.7579 7.59219 91.8579 7.49219C92.2579 6.89219 92.2579 6.19238 91.4579 5.69238C91.3579 5.59238 91.0579 5.59229 90.8579 5.59229C90.3579 5.59229 89.7579 5.69258 89.0579 5.89258Z" fill="white"/>
</mask>
<g mask="url(#mask18_2_1939)">
<path d="M1451.96 -4398.73L1432.73 427.726L-226.445 421.116L-207.216 -4405.34L1451.96 -4398.73Z" fill="url(#paint18_linear_2_1939)"/>
</g>
<mask id="mask19_2_1939" style="mask-type:luminance" maskUnits="userSpaceOnUse" x="86" y="22" width="13" height="13">
<path d="M91.2578 23.7925C92.0578 24.8925 92.3578 26.2923 92.0578 27.5923C91.6578 30.3923 88.4578 29.8923 86.8578 31.5923C86.4578 32.0923 86.0578 32.5923 88.4578 33.0923C90.8578 33.5923 95.2578 34.2926 96.1578 34.3926C96.3578 34.3926 96.6578 34.3926 96.8578 34.3926C97.1578 33.1926 97.3578 31.8923 97.5578 30.5923L98.8578 23.6924C97.7578 23.5924 94.7578 23.1924 94.1578 23.1924C93.2578 23.0924 90.3578 22.6924 90.3578 22.6924C90.3578 22.6924 91.0578 23.4925 91.2578 23.7925Z" fill="white"/>
</mask>
<g mask="url(#mask19_2_1939)">
<path d="M1451.96 -4398.73L1432.73 427.726L-226.445 421.116L-207.216 -4405.34L1451.96 -4398.73Z" fill="url(#paint19_linear_2_1939)"/>
</g>
<mask id="mask20_2_1939" style="mask-type:luminance" maskUnits="userSpaceOnUse" x="77" y="33" width="20" height="7">
<path d="M79.1579 34.0923C78.5579 34.1923 77.4579 34.3923 77.0579 34.5923C77.0579 34.5923 83.5579 35.9923 86.5579 36.5923C88.4579 37.0923 92.4579 38.4922 95.1579 39.4922C95.9579 38.0922 96.3579 36.6923 96.7579 35.0923C96.2579 34.8923 95.8579 34.7925 95.7579 34.7925C94.4579 34.4925 93.1579 34.2923 91.8579 34.0923C89.6579 33.7923 87.3579 33.5923 85.0579 33.5923C83.0579 33.5923 81.0579 33.7923 79.1579 34.0923Z" fill="white"/>
</mask>
<g mask="url(#mask20_2_1939)">
<path d="M1451.96 -4398.73L1432.73 427.726L-226.445 421.116L-207.216 -4405.34L1451.96 -4398.73Z" fill="url(#paint20_linear_2_1939)"/>
</g>
<mask id="mask21_2_1939" style="mask-type:luminance" maskUnits="userSpaceOnUse" x="0" y="0" width="43" height="37">
<path d="M0.557861 2.59229C0.957861 5.89229 3.35786 8.49219 4.75786 11.4922C6.35786 14.5922 7.95785 17.7925 8.65785 21.2925C9.25785 24.3925 9.85785 27.4923 10.4579 30.5923C10.7579 32.8923 11.1579 34.9926 11.6579 36.8926L27.9579 33.5923L42.3579 32.4922C41.6579 31.0922 41.4579 29.4923 41.4579 27.0923C41.5579 18.4923 34.9579 11.5923 27.8579 7.59229C20.5579 3.39229 12.1579 1.99258 3.95786 0.392578C3.75786 0.292578 3.45785 0.29248 3.15785 0.29248C1.85785 0.29248 0.557861 0.992285 0.557861 2.59229Z" fill="white"/>
</mask>
<g mask="url(#mask21_2_1939)">
<path d="M806.111 1218.07L-2549.29 -1420.54L419.405 -5195.69L3774.8 -2557.08L806.111 1218.07Z" fill="url(#paint21_linear_2_1939)"/>
</g>
<mask id="mask22_2_1939" style="mask-type:luminance" maskUnits="userSpaceOnUse" x="14" y="36" width="30" height="25">
<path d="M34.4579 37.9922C30.9579 38.6922 29.1579 38.8923 22.3579 39.5923C19.0579 39.8923 16.1579 40.5925 14.0579 41.2925C15.1579 42.4925 16.5579 43.4925 18.5579 44.2925C19.2579 44.5925 20.0579 44.5922 20.7579 44.9922C22.5579 46.0922 19.7579 46.9925 18.9579 47.2925C11.9579 48.1925 15.7579 56.1924 16.1579 60.6924C17.5579 60.1924 19.0579 59.4924 20.4579 58.6924C25.8579 55.5924 41.1579 42.3923 41.8579 41.5923C42.5579 40.7923 43.5579 39.2923 43.7579 38.0923C43.8579 36.8923 42.8579 36.5923 42.2579 36.5923C42.1579 36.4923 42.1579 36.4922 42.0579 36.4922C41.1579 36.4922 37.7579 37.3922 34.4579 37.9922Z" fill="white"/>
</mask>
<g mask="url(#mask22_2_1939)">
<path d="M-2289.88 -3201.54L1025.39 -5107.42L3515.4 -776.074L200.127 1129.81L-2289.88 -3201.54Z" fill="url(#paint22_linear_2_1939)"/>
</g>
<mask id="mask23_2_1939" style="mask-type:luminance" maskUnits="userSpaceOnUse" x="11" y="31" width="25" height="8">
<path d="M24.2579 31.7925C18.9579 32.2925 13.4579 33.4922 11.0579 33.9922C11.3579 35.5922 11.7579 37.1923 12.3579 38.5923C14.4579 38.0923 17.9579 37.1922 19.4579 36.4922C21.6579 35.5922 29.4579 33.5925 32.7579 33.2925C35.3579 33.0925 35.6579 32.9922 35.6579 32.9922C35.6579 32.9922 31.4579 31.6924 26.4579 31.6924C25.7579 31.6924 25.0579 31.7925 24.2579 31.7925Z" fill="white"/>
</mask>
<g mask="url(#mask23_2_1939)">
<path d="M1426.43 -4500.51L1731.68 402.583L-200.91 522.9L-506.161 -4380.2L1426.43 -4500.51Z" fill="url(#paint23_linear_2_1939)"/>
</g>
<mask id="mask24_2_1939" style="mask-type:luminance" maskUnits="userSpaceOnUse" x="19" y="4" width="7" height="4">
<path d="M19.9578 4.09229C20.2578 4.59229 20.5578 4.99238 20.7578 5.19238C21.3578 5.69238 22.3578 6.49258 22.7578 6.89258C23.2578 7.29258 23.5578 7.99219 24.2578 7.99219C24.9578 7.99219 25.8578 8.09229 25.8578 7.09229C25.8578 6.99229 25.8578 6.89258 25.8578 6.89258C25.8578 6.79258 25.8578 6.59219 25.8578 6.49219C23.9578 5.59219 21.9578 4.79229 19.9578 4.09229Z" fill="white"/>
</mask>
<g mask="url(#mask24_2_1939)">
<path d="M1426.43 -4500.51L1731.68 402.582L-200.91 522.899L-506.162 -4380.2L1426.43 -4500.51Z" fill="url(#paint24_linear_2_1939)"/>
</g>
<mask id="mask25_2_1939" style="mask-type:luminance" maskUnits="userSpaceOnUse" x="11" y="4" width="10" height="9">
<path d="M15.3578 4.19238C13.9578 4.19238 13.3578 4.89258 13.2578 5.39258C13.0578 5.89258 13.8578 7.19219 14.0578 7.49219C14.1578 7.79219 14.0578 8.19219 12.9578 8.99219C11.8578 9.79219 11.4578 10.6923 11.5578 11.5923C11.6578 12.4923 12.9578 12.2923 14.1578 12.0923C15.2578 11.8923 17.7578 11.1924 17.7578 11.1924C17.7578 11.1924 18.0578 11.0922 18.4578 10.9922C18.8578 10.7922 19.4578 10.3924 19.6578 10.1924C19.9578 9.89238 19.8578 9.29248 19.8578 8.79248C19.8578 8.19248 20.0578 7.59248 20.2578 7.29248C20.3578 6.89248 20.2578 6.69219 19.9578 5.99219C19.5578 5.39219 18.3578 4.59248 16.3578 4.29248C16.0578 4.19248 15.8578 4.19238 15.5578 4.19238H15.3578Z" fill="white"/>
</mask>
<g mask="url(#mask25_2_1939)">
<path d="M1426.43 -4500.51L1731.68 402.583L-200.91 522.9L-506.162 -4380.2L1426.43 -4500.51Z" fill="url(#paint25_linear_2_1939)"/>
</g>
<mask id="mask26_2_1939" style="mask-type:luminance" maskUnits="userSpaceOnUse" x="7" y="12" width="16" height="10">
<path d="M16.5579 12.0923C15.1579 12.0923 12.9579 13.1924 12.3579 14.1924C11.8579 15.1924 11.3579 16.3925 9.9579 17.2925C9.1579 17.7925 8.45791 18.0925 7.85791 18.2925C8.15791 19.2925 8.4579 20.2925 8.6579 21.2925V21.3926C10.3579 21.1926 12.0579 20.9924 13.7579 20.6924C15.2579 20.3924 16.7579 20.0925 18.2579 19.7925C22.0579 19.1925 22.2579 18.1926 22.3579 16.8926C22.4579 15.6926 21.7579 14.6926 20.9579 13.3926C20.1579 12.0926 18.0579 12.0923 16.6579 12.0923H16.5579Z" fill="white"/>
</mask>
<g mask="url(#mask26_2_1939)">
<path d="M1426.43 -4500.51L1731.68 402.582L-200.91 522.899L-506.161 -4380.2L1426.43 -4500.51Z" fill="url(#paint26_linear_2_1939)"/>
</g>
<mask id="mask27_2_1939" style="mask-type:luminance" maskUnits="userSpaceOnUse" x="8" y="20" width="18" height="14">
<path d="M14.4579 21.2925C13.2579 21.2925 10.4579 21.7922 8.85791 21.9922C9.35791 24.8922 9.9579 27.7923 10.4579 30.5923C10.6579 31.5923 10.7579 32.4925 10.8579 33.2925C12.0579 33.0925 15.3579 32.3924 16.9579 32.1924C18.8579 31.9924 22.9579 31.3923 24.1579 31.0923C25.3579 30.8923 25.8579 30.0922 25.4579 29.4922C25.0579 28.8922 23.9579 28.3926 22.3579 27.8926C20.7579 27.4926 19.8579 26.1922 19.9579 24.4922C19.9579 23.7922 20.1579 22.9925 20.3579 22.2925C20.5579 21.7925 21.0579 21.5924 21.4579 21.1924C21.7579 20.7924 21.3579 20.6924 21.3579 20.6924C21.3579 20.6924 16.2579 21.0925 14.4579 21.2925Z" fill="white"/>
</mask>
<g mask="url(#mask27_2_1939)">
<path d="M1426.43 -4500.51L1731.68 402.582L-200.91 522.899L-506.162 -4380.2L1426.43 -4500.51Z" fill="url(#paint27_linear_2_1939)"/>
</g>
<mask id="mask28_2_1939" style="mask-type:luminance" maskUnits="userSpaceOnUse" x="20" y="7" width="22" height="25">
<path d="M20.2578 9.79248C20.3578 10.7925 20.9578 11.6922 21.4578 12.4922C22.4578 13.9922 23.6578 15.7923 22.9578 17.5923C22.2578 19.1923 22.7578 19.5924 22.4578 20.6924C22.1578 21.6924 21.9578 21.4922 21.3578 21.9922C20.6578 22.5922 20.4578 24.0926 20.6578 25.3926C20.7578 26.6926 21.6578 26.8926 23.0578 27.3926C24.3578 27.9926 25.6578 29.0923 26.0578 29.5923C26.2578 29.7923 26.5578 30.0922 26.5578 30.4922C26.5578 30.6922 26.4578 30.7926 26.3578 30.8926C26.2578 31.0926 26.3578 31.1925 26.4578 31.2925C26.6578 31.2925 27.5578 31.2924 28.6578 31.1924C29.6578 31.0924 30.7578 31.0923 31.7578 31.0923C34.7578 31.0923 37.7578 31.5923 40.7578 31.5923C41.1578 31.5923 41.5578 31.5923 41.9578 31.5923C41.5578 30.3923 41.4578 28.9923 41.4578 27.0923C41.5578 23.3923 40.3578 20.0923 38.4578 17.0923C37.5578 16.5923 35.9578 15.7922 34.0578 14.9922C32.0578 14.0922 30.8578 13.1926 29.2578 11.8926C27.7578 10.5926 26.3578 10.2924 24.8578 9.69238C23.9578 9.39238 22.9578 8.79229 22.1578 8.09229C21.9578 7.99229 21.7578 7.59229 21.4578 7.59229C21.3578 7.59229 21.3578 7.59229 21.3578 7.59229C20.3578 7.59229 20.2578 9.09248 20.2578 9.79248Z" fill="white"/>
</mask>
<g mask="url(#mask28_2_1939)">
<path d="M259.08 -5138.61L3607.06 -3028.27L966.436 1161L-2381.55 -949.341L259.08 -5138.61Z" fill="url(#paint28_linear_2_1939)"/>
</g>
<mask id="mask29_2_1939" style="mask-type:luminance" maskUnits="userSpaceOnUse" x="11" y="40" width="35" height="44">
<path d="M40.7578 40.9922C40.5578 40.9922 40.2578 41.0923 40.0578 41.0923C38.6578 41.5923 38.0578 41.9924 37.2578 42.6924C36.4578 43.3924 33.6578 45.2923 31.9578 47.0923C30.3578 48.7923 26.4578 52.2926 24.9578 53.3926C23.4578 54.3926 20.5578 56.2923 18.3578 57.0923C17.5578 57.3923 16.6578 57.7924 15.7578 58.1924C15.9578 59.0924 16.1578 59.8924 16.1578 60.6924C16.9578 64.8924 17.5578 69.0926 17.2578 73.3926C16.6578 75.9926 14.8578 78.4926 12.5578 79.8926C11.9578 80.1926 11.7578 80.7926 11.7578 81.3926V81.4922C11.7578 82.0922 12.0578 82.6923 12.4578 83.0923C14.6578 84.7923 16.1578 80.5926 17.0578 79.3926C19.0578 76.9926 21.0578 74.5926 24.0578 73.3926C25.6578 72.6926 27.6578 73.0924 29.3578 73.1924C31.7578 73.2924 34.0578 73.4925 36.3578 73.7925C37.8578 73.8925 39.8578 73.9926 41.0578 72.8926C42.8578 71.3926 41.5578 68.3926 41.9578 66.3926C42.0578 65.2926 42.6578 64.8926 43.4578 64.3926C43.7578 64.1926 43.9578 63.9924 44.2578 63.6924C43.9578 62.2924 43.5578 60.8924 43.3578 59.6924C42.8578 59.3924 42.3578 59.1922 42.0578 58.9922C39.5578 57.3922 41.3578 57.1922 42.9578 56.9922C43.0578 54.4922 44.5578 48.1925 44.7578 46.2925C44.7578 45.4925 45.0578 44.6926 45.2578 43.8926C45.3578 43.4926 45.3578 43.0924 45.3578 42.6924C45.3578 42.4924 45.3578 42.0926 45.1578 41.8926C45.0578 41.7926 45.0578 41.7924 45.0578 41.6924C44.9578 41.6924 44.9578 41.6923 44.9578 41.5923C44.3578 41.1923 43.5578 41.0922 42.8578 40.9922C42.4578 40.9922 42.0578 40.8926 41.7578 40.8926C41.3578 40.8926 41.0578 40.9922 40.7578 40.9922Z" fill="white"/>
</mask>
<g mask="url(#mask29_2_1939)">
<path d="M-2320.53 -830.313L218.581 -5117.85L3546.05 -3147.3L1006.93 1140.24L-2320.53 -830.313Z" fill="url(#paint29_linear_2_1939)"/>
</g>
<mask id="mask30_2_1939" style="mask-type:luminance" maskUnits="userSpaceOnUse" x="16" y="39" width="34" height="41">
<path d="M48.2579 40.4922C48.2579 40.4922 42.7579 46.6923 41.8579 47.5923C40.8579 48.4923 36.1579 53.0925 34.8579 54.2925C33.9579 55.1925 30.8579 58.4926 29.5579 59.8926C28.6579 60.3926 27.8579 60.8922 27.1579 61.4922C25.7579 62.7922 23.2579 64.7922 21.2579 68.4922C19.2579 72.0922 17.3579 77.9922 17.3579 77.9922L16.8579 79.6924C16.9579 79.5924 17.0579 79.4926 17.0579 79.3926C17.6579 78.6926 18.2579 77.8924 18.8579 77.1924C19.3579 75.4924 20.5579 71.6924 22.2579 68.6924C24.5579 64.8924 26.7579 61.8924 31.0579 60.1924C32.2579 59.5924 33.2579 59.2922 34.1579 58.9922C33.2579 60.2922 31.1579 63.3925 30.0579 65.7925C29.1579 67.7925 27.9579 71.0922 27.3579 72.9922C27.7579 72.9922 28.0579 73.0923 28.4579 73.0923C28.6579 72.1923 29.9579 67.0925 32.5579 62.7925C33.7579 60.6925 34.5579 59.4924 35.0579 58.6924C36.5579 58.2924 37.6579 57.9924 39.3579 57.1924C39.4579 57.0924 39.7579 56.9925 39.9579 56.7925C39.2579 57.6925 38.2579 58.7924 37.8579 59.6924C36.9579 61.3924 36.4579 64.7926 36.1579 66.3926C35.8579 67.6926 34.7579 71.6922 34.2579 73.4922C34.4579 73.4922 34.7579 73.5923 34.9579 73.5923C35.3579 71.7923 36.0579 68.6923 36.1579 68.0923C36.3579 67.1923 36.9579 64.0924 37.6579 61.6924C38.2579 59.2924 39.4579 57.8922 40.3579 56.9922C40.6579 56.6922 40.9579 56.2922 41.3579 55.9922C43.0579 54.7922 45.2579 53.1922 46.2579 52.4922C46.1579 51.9922 46.0579 51.4922 46.0579 50.9922C45.3579 51.5922 43.6579 53.0925 42.6579 53.7925C39.9579 55.7925 33.5579 57.9923 32.2579 58.5923C31.8579 58.7923 31.2579 59.0926 30.5579 59.3926C31.5579 58.3926 33.4579 56.5926 34.1579 55.8926C35.0579 54.9926 38.3579 52.2925 40.2579 50.2925C41.8579 48.5925 47.4579 42.3923 49.1579 40.5923C48.9579 40.3923 48.7579 40.1922 48.6579 39.9922L48.2579 40.4922Z" fill="white"/>
</mask>
<g mask="url(#mask30_2_1939)">
<path d="M-2617.18 -2006L618.608 -5218.79L3842.7 -1971.61L606.908 1241.17L-2617.18 -2006Z" fill="url(#paint30_linear_2_1939)"/>
</g>
<mask id="mask31_2_1939" style="mask-type:luminance" maskUnits="userSpaceOnUse" x="14" y="39" width="35" height="25">
<path d="M45.6578 41.1924C42.7578 40.1924 39.9578 40.4922 36.9578 40.9922C34.2578 41.3922 30.0578 43.5925 28.6578 44.2925C27.4578 44.7925 17.0578 50.2922 14.7578 51.4922C14.7578 51.8922 14.7578 52.2925 14.7578 52.7925C16.9578 51.3925 20.4578 49.3926 21.2578 48.8926C22.0578 48.3926 28.0578 45.0925 31.8578 43.2925C33.8578 42.3925 36.0578 41.7926 38.2578 41.3926C40.3578 40.9926 42.6578 40.4923 44.6578 41.5923C44.7578 41.5923 44.7578 41.6924 44.8578 41.6924C43.3578 42.7924 38.2578 46.8925 36.6578 48.2925C34.4578 50.1925 32.2578 51.7925 29.9578 53.2925C27.4578 54.8925 25.0578 56.3926 22.5578 57.8926C21.6578 58.3926 20.8578 58.7926 20.1578 59.3926C19.4578 59.9926 18.8578 60.4923 18.1578 61.0923C17.6578 61.5923 17.0578 62.0923 16.5578 62.5923C16.5578 62.8923 16.5578 63.1922 16.6578 63.4922C17.9578 62.4922 22.7578 58.6925 27.5578 55.7925C33.1578 52.3925 40.5578 45.6924 40.5578 45.6924L47.7578 40.1924L48.3578 39.6924C48.2578 39.5924 48.1578 39.4926 48.1578 39.3926C47.6578 39.7926 46.3578 40.6924 45.6578 41.1924Z" fill="white"/>
</mask>
<g mask="url(#mask31_2_1939)">
<path d="M-2295.34 -3192.12L1022.18 -5109.28L3520.85 -785.497L203.332 1131.66L-2295.34 -3192.12Z" fill="url(#paint31_linear_2_1939)"/>
</g>
<mask id="mask32_2_1939" style="mask-type:luminance" maskUnits="userSpaceOnUse" x="15" y="36" width="31" height="8">
<path d="M28.7579 39.9922C27.1579 40.2922 25.5579 40.4924 23.9579 40.6924C21.5579 40.9924 19.1579 41.0924 16.7579 41.6924C16.2579 41.8924 15.6579 42.0925 15.0579 42.2925C15.2579 42.3925 15.4579 42.5924 15.6579 42.6924C16.4579 42.4924 17.4579 42.0926 18.3579 41.8926C19.7579 41.5926 21.0579 41.2925 21.0579 41.2925C21.0579 41.2925 17.8579 42.4924 16.3579 43.1924C16.5579 43.2924 16.9579 43.4924 17.2579 43.6924C17.9579 43.2924 18.6579 42.8923 19.4579 42.5923C21.5579 41.5923 23.7579 41.1925 26.0579 40.7925C28.3579 40.3925 30.7579 40.1924 33.0579 39.6924C35.2579 39.2924 37.3579 38.7925 39.4579 38.2925C41.9579 37.5925 44.0579 36.8926 45.3579 36.3926C45.2579 36.2926 45.1579 36.1924 45.1579 36.1924C39.6579 37.5924 34.2579 39.0922 28.7579 39.9922Z" fill="white"/>
</mask>
<g mask="url(#mask32_2_1939)">
<path d="M-1225.98 -4172.91L1355.89 -4745.43L2451.49 195.289L-130.379 767.815L-1225.98 -4172.91Z" fill="url(#paint32_linear_2_1939)"/>
</g>
<mask id="mask33_2_1939" style="mask-type:luminance" maskUnits="userSpaceOnUse" x="19" y="33" width="24" height="4">
<path d="M28.9579 34.9922C26.3579 35.2922 22.6579 35.5923 22.6579 35.5923L19.8579 36.2925C19.8579 36.2925 30.1579 35.5923 35.1579 34.5923C39.0579 33.7923 41.8579 33.5922 42.8579 33.4922C42.8579 33.3922 42.7579 33.2924 42.6579 33.1924C40.7579 33.4924 31.2579 34.7922 28.9579 34.9922Z" fill="white"/>
</mask>
<g mask="url(#mask33_2_1939)">
<path d="M-710.574 -4345.66L1414.67 -4570.07L1936.09 368.045L-189.159 592.45L-710.574 -4345.66Z" fill="url(#paint33_linear_2_1939)"/>
</g>
<defs>
<linearGradient id="paint0_linear_2_1939" x1="30.5735" y1="24.336" x2="33.2634" y2="67.5426" gradientUnits="userSpaceOnUse">
<stop stop-color="#3977B1"/>
<stop offset="0.075" stop-color="#346DA6"/>
<stop offset="0.24881" stop-color="#2A558B"/>
<stop offset="0.270238" stop-color="#295288"/>
<stop offset="0.309524" stop-color="#264C82"/>
<stop offset="0.360714" stop-color="#22457A"/>
<stop offset="0.391667" stop-color="#1F4175"/>
<stop offset="0.434524" stop-color="#1C3B6D"/>
<stop offset="0.463095" stop-color="#1D3868"/>
<stop offset="0.505952" stop-color="#203361"/>
<stop offset="0.646429" stop-color="#1F274A"/>
<stop offset="0.725" stop-color="#1E2241"/>
<stop offset="0.782143" stop-color="#1B1D39"/>
<stop offset="0.878571" stop-color="#15152C"/>
<stop offset="0.939286" stop-color="#101123"/>
<stop offset="1" stop-color="#090D1B"/>
</linearGradient>
<linearGradient id="paint1_linear_2_1939" x1="62.6708" y1="45.3053" x2="57.0098" y2="42.5687" gradientUnits="userSpaceOnUse">
<stop stop-color="#21294F"/>
<stop offset="0.158333" stop-color="#1F2547"/>
<stop offset="0.292857" stop-color="#1E2241"/>
<stop offset="0.414286" stop-color="#1B1E3B"/>
<stop offset="0.633333" stop-color="#171730"/>
<stop offset="0.704762" stop-color="#15152C"/>
<stop offset="0.794048" stop-color="#131328"/>
<stop offset="0.944048" stop-color="#0D0F1F"/>
<stop offset="1" stop-color="#090D1B"/>
</linearGradient>
<linearGradient id="paint2_linear_2_1939" x1="55.2806" y1="25.2738" x2="81.5013" y2="22.4679" gradientUnits="userSpaceOnUse">
<stop stop-color="#21294F"/>
<stop offset="0.158333" stop-color="#1F2547"/>
<stop offset="0.292857" stop-color="#1E2241"/>
<stop offset="0.414286" stop-color="#1B1E3B"/>
<stop offset="0.633333" stop-color="#171730"/>
<stop offset="0.704762" stop-color="#15152C"/>
<stop offset="0.794048" stop-color="#131328"/>
<stop offset="0.944048" stop-color="#0D0F1F"/>
<stop offset="1" stop-color="#090D1B"/>
</linearGradient>
<linearGradient id="paint3_linear_2_1939" x1="65.4604" y1="21.9358" x2="91.9067" y2="21.9358" gradientUnits="userSpaceOnUse">
<stop stop-color="#6EC3C0"/>
<stop offset="0.0511905" stop-color="#69C2C0"/>
<stop offset="0.155952" stop-color="#5FC0C1"/>
<stop offset="0.207143" stop-color="#5BBFC2"/>
<stop offset="0.307143" stop-color="#4FBDC4"/>
<stop offset="0.335714" stop-color="#4ABBC3"/>
<stop offset="0.378571" stop-color="#49B6C2"/>
<stop offset="0.471429" stop-color="#47ADC0"/>
<stop offset="0.566667" stop-color="#46A4BE"/>
<stop offset="0.584524" stop-color="#45A1BD"/>
<stop offset="0.610714" stop-color="#439EBC"/>
<stop offset="0.67381" stop-color="#4297BA"/>
<stop offset="0.695238" stop-color="#4094B9"/>
<stop offset="0.769048" stop-color="#418EB7"/>
<stop offset="0.969048" stop-color="#3C7AB2"/>
<stop offset="1" stop-color="#3977B1"/>
</linearGradient>
<linearGradient id="paint4_linear_2_1939" x1="78.4787" y1="30.4826" x2="73.8492" y2="69.2548" gradientUnits="userSpaceOnUse">
<stop stop-color="#3977B1"/>
<stop offset="0.075" stop-color="#346DA6"/>
<stop offset="0.24881" stop-color="#2A558B"/>
<stop offset="0.270238" stop-color="#295288"/>
<stop offset="0.309524" stop-color="#264C82"/>
<stop offset="0.360714" stop-color="#22457A"/>
<stop offset="0.391667" stop-color="#1F4175"/>
<stop offset="0.434524" stop-color="#1C3B6D"/>
<stop offset="0.463095" stop-color="#1D3868"/>
<stop offset="0.505952" stop-color="#203361"/>
<stop offset="0.646429" stop-color="#1F274A"/>
<stop offset="0.725" stop-color="#1E2241"/>
<stop offset="0.782143" stop-color="#1B1D39"/>
<stop offset="0.878571" stop-color="#15152C"/>
<stop offset="0.939286" stop-color="#101123"/>
<stop offset="1" stop-color="#090D1B"/>
</linearGradient>
<linearGradient id="paint5_linear_2_1939" x1="93.7446" y1="52.3089" x2="59.8803" y2="34.5059" gradientUnits="userSpaceOnUse">
<stop stop-color="#3977B1"/>
<stop offset="0.075" stop-color="#346DA6"/>
<stop offset="0.24881" stop-color="#2A558B"/>
<stop offset="0.270238" stop-color="#295288"/>
<stop offset="0.309524" stop-color="#264C82"/>
<stop offset="0.360714" stop-color="#22457A"/>
<stop offset="0.391667" stop-color="#1F4175"/>
<stop offset="0.434524" stop-color="#1C3B6D"/>
<stop offset="0.463095" stop-color="#1D3868"/>
<stop offset="0.505952" stop-color="#203361"/>
<stop offset="0.646429" stop-color="#1F274A"/>
<stop offset="0.725" stop-color="#1E2241"/>
<stop offset="0.782143" stop-color="#1B1D39"/>
<stop offset="0.878571" stop-color="#15152C"/>
<stop offset="0.939286" stop-color="#101123"/>
<stop offset="1" stop-color="#090D1B"/>
</linearGradient>
<linearGradient id="paint6_linear_2_1939" x1="89.3954" y1="47.1045" x2="62.2212" y2="33.9682" gradientUnits="userSpaceOnUse">
<stop stop-color="#3977B1"/>
<stop offset="0.108333" stop-color="#31659E"/>
<stop offset="0.260714" stop-color="#285086"/>
<stop offset="0.321429" stop-color="#244A7F"/>
<stop offset="0.355952" stop-color="#20457A"/>
<stop offset="0.4" stop-color="#1F4175"/>
<stop offset="0.428571" stop-color="#1D3E71"/>
<stop offset="0.527381" stop-color="#1E3665"/>
<stop offset="0.665476" stop-color="#212F5A"/>
<stop offset="0.822619" stop-color="#212B52"/>
<stop offset="0.972619" stop-color="#21294F"/>
<stop offset="1" stop-color="#21294F"/>
</linearGradient>
<linearGradient id="paint7_linear_2_1939" x1="87.3984" y1="42.0228" x2="64.9019" y2="31.1477" gradientUnits="userSpaceOnUse">
<stop stop-color="#3977B1"/>
<stop offset="0.117857" stop-color="#3469A0"/>
<stop offset="0.214286" stop-color="#2E5D91"/>
<stop offset="0.272619" stop-color="#2B578A"/>
<stop offset="0.328571" stop-color="#275082"/>
<stop offset="0.369048" stop-color="#254C7C"/>
<stop offset="0.394048" stop-color="#234878"/>
<stop offset="0.455952" stop-color="#20416F"/>
<stop offset="0.547619" stop-color="#1A3660"/>
<stop offset="0.571429" stop-color="#1A345D"/>
<stop offset="0.62381" stop-color="#1D2E54"/>
<stop offset="0.684524" stop-color="#1E294B"/>
<stop offset="0.75" stop-color="#1C2341"/>
<stop offset="0.84881" stop-color="#191A34"/>
<stop offset="0.89881" stop-color="#15152C"/>
<stop offset="0.959524" stop-color="#101123"/>
<stop offset="1" stop-color="#090D1B"/>
</linearGradient>
<linearGradient id="paint8_linear_2_1939" x1="94.5218" y1="88.314" x2="64.6834" y2="43.0371" gradientUnits="userSpaceOnUse">
<stop stop-color="#A7D2A7"/>
<stop offset="0.047619" stop-color="#A0D0AB"/>
<stop offset="0.140476" stop-color="#90CCB4"/>
<stop offset="0.159524" stop-color="#8DCBB5"/>
<stop offset="0.177381" stop-color="#89C9B7"/>
<stop offset="0.186905" stop-color="#88C8B8"/>
<stop offset="0.211905" stop-color="#84C4B9"/>
<stop offset="0.265476" stop-color="#7CBFBE"/>
<stop offset="0.30119" stop-color="#74B6BC"/>
<stop offset="0.34881" stop-color="#6BABBA"/>
<stop offset="0.372619" stop-color="#66A6BA"/>
<stop offset="0.402381" stop-color="#609FB8"/>
<stop offset="0.439286" stop-color="#5896B6"/>
<stop offset="0.469048" stop-color="#518FB5"/>
<stop offset="0.47619" stop-color="#4F8DB5"/>
<stop offset="0.510714" stop-color="#4886B4"/>
<stop offset="0.521429" stop-color="#4683B3"/>
<stop offset="0.570238" stop-color="#3B78B1"/>
<stop offset="0.589286" stop-color="#3874AE"/>
<stop offset="0.628571" stop-color="#346CA6"/>
<stop offset="0.664286" stop-color="#31659E"/>
<stop offset="0.688095" stop-color="#2F6098"/>
<stop offset="0.715476" stop-color="#2D5B92"/>
<stop offset="0.764286" stop-color="#295187"/>
<stop offset="0.809524" stop-color="#23487D"/>
<stop offset="0.852381" stop-color="#1F3F73"/>
<stop offset="0.861905" stop-color="#1D3E70"/>
<stop offset="0.875" stop-color="#1C3B6D"/>
<stop offset="0.895238" stop-color="#1D3868"/>
<stop offset="0.936905" stop-color="#21315E"/>
<stop offset="1" stop-color="#21294F"/>
</linearGradient>
<linearGradient id="paint9_linear_2_1939" x1="92.5227" y1="67.2168" x2="54.52" y2="48.8459" gradientUnits="userSpaceOnUse">
<stop stop-color="#3977B1"/>
<stop offset="0.117857" stop-color="#3469A0"/>
<stop offset="0.214286" stop-color="#2E5D91"/>
<stop offset="0.272619" stop-color="#2B578A"/>
<stop offset="0.328571" stop-color="#275082"/>
<stop offset="0.369048" stop-color="#254C7C"/>
<stop offset="0.394048" stop-color="#234878"/>
<stop offset="0.455952" stop-color="#20416F"/>
<stop offset="0.547619" stop-color="#1A3660"/>
<stop offset="0.571429" stop-color="#1A345D"/>
<stop offset="0.62381" stop-color="#1D2E54"/>
<stop offset="0.684524" stop-color="#1E294B"/>
<stop offset="0.75" stop-color="#1C2341"/>
<stop offset="0.84881" stop-color="#191A34"/>
<stop offset="0.89881" stop-color="#15152C"/>
<stop offset="0.959524" stop-color="#101123"/>
<stop offset="1" stop-color="#090D1B"/>
</linearGradient>
<linearGradient id="paint10_linear_2_1939" x1="92.849" y1="58.406" x2="60.6755" y2="42.853" gradientUnits="userSpaceOnUse">
<stop stop-color="#3977B1"/>
<stop offset="0.108333" stop-color="#31659E"/>
<stop offset="0.260714" stop-color="#285086"/>
<stop offset="0.321429" stop-color="#244A7F"/>
<stop offset="0.355952" stop-color="#20457A"/>
<stop offset="0.4" stop-color="#1F4175"/>
<stop offset="0.428571" stop-color="#1D3E71"/>
<stop offset="0.527381" stop-color="#1E3665"/>
<stop offset="0.665476" stop-color="#212F5A"/>
<stop offset="0.822619" stop-color="#212B52"/>
<stop offset="0.972619" stop-color="#21294F"/>
<stop offset="1" stop-color="#21294F"/>
</linearGradient>
<linearGradient id="paint11_linear_2_1939" x1="92.4932" y1="52.7843" x2="68.411" y2="41.1426" gradientUnits="userSpaceOnUse">
<stop stop-color="#3977B1"/>
<stop offset="0.108333" stop-color="#31659E"/>
<stop offset="0.260714" stop-color="#285086"/>
<stop offset="0.321429" stop-color="#244A7F"/>
<stop offset="0.355952" stop-color="#20457A"/>
<stop offset="0.4" stop-color="#1F4175"/>
<stop offset="0.428571" stop-color="#1D3E71"/>
<stop offset="0.527381" stop-color="#1E3665"/>
<stop offset="0.665476" stop-color="#212F5A"/>
<stop offset="0.822619" stop-color="#212B52"/>
<stop offset="0.972619" stop-color="#21294F"/>
<stop offset="1" stop-color="#21294F"/>
</linearGradient>
<linearGradient id="paint12_linear_2_1939" x1="70.7519" y1="74.5303" x2="59.4315" y2="47.8258" gradientUnits="userSpaceOnUse">
<stop stop-color="#3977B1"/>
<stop offset="0.117857" stop-color="#3469A0"/>
<stop offset="0.214286" stop-color="#2E5D91"/>
<stop offset="0.272619" stop-color="#2B578A"/>
<stop offset="0.328571" stop-color="#275082"/>
<stop offset="0.369048" stop-color="#254C7C"/>
<stop offset="0.394048" stop-color="#234878"/>
<stop offset="0.455952" stop-color="#20416F"/>
<stop offset="0.547619" stop-color="#1A3660"/>
<stop offset="0.571429" stop-color="#1A345D"/>
<stop offset="0.62381" stop-color="#1D2E54"/>
<stop offset="0.684524" stop-color="#1E294B"/>
<stop offset="0.75" stop-color="#1C2341"/>
<stop offset="0.84881" stop-color="#191A34"/>
<stop offset="0.89881" stop-color="#15152C"/>
<stop offset="0.959524" stop-color="#101123"/>
<stop offset="1" stop-color="#090D1B"/>
</linearGradient>
<linearGradient id="paint13_linear_2_1939" x1="69.8477" y1="74.9142" x2="58.5274" y2="48.2097" gradientUnits="userSpaceOnUse">
<stop stop-color="#3977B1"/>
<stop offset="0.117857" stop-color="#3469A0"/>
<stop offset="0.214286" stop-color="#2E5D91"/>
<stop offset="0.272619" stop-color="#2B578A"/>
<stop offset="0.328571" stop-color="#275082"/>
<stop offset="0.369048" stop-color="#254C7C"/>
<stop offset="0.394048" stop-color="#234878"/>
<stop offset="0.455952" stop-color="#20416F"/>
<stop offset="0.547619" stop-color="#1A3660"/>
<stop offset="0.571429" stop-color="#1A345D"/>
<stop offset="0.62381" stop-color="#1D2E54"/>
<stop offset="0.684524" stop-color="#1E294B"/>
<stop offset="0.75" stop-color="#1C2341"/>
<stop offset="0.84881" stop-color="#191A34"/>
<stop offset="0.89881" stop-color="#15152C"/>
<stop offset="0.959524" stop-color="#101123"/>
<stop offset="1" stop-color="#090D1B"/>
</linearGradient>
<linearGradient id="paint14_linear_2_1939" x1="71.1436" y1="74.3643" x2="59.8233" y2="47.6598" gradientUnits="userSpaceOnUse">
<stop stop-color="#3977B1"/>
<stop offset="0.117857" stop-color="#3469A0"/>
<stop offset="0.214286" stop-color="#2E5D91"/>
<stop offset="0.272619" stop-color="#2B578A"/>
<stop offset="0.328571" stop-color="#275082"/>
<stop offset="0.369048" stop-color="#254C7C"/>
<stop offset="0.394048" stop-color="#234878"/>
<stop offset="0.455952" stop-color="#20416F"/>
<stop offset="0.547619" stop-color="#1A3660"/>
<stop offset="0.571429" stop-color="#1A345D"/>
<stop offset="0.62381" stop-color="#1D2E54"/>
<stop offset="0.684524" stop-color="#1E294B"/>
<stop offset="0.75" stop-color="#1C2341"/>
<stop offset="0.84881" stop-color="#191A34"/>
<stop offset="0.89881" stop-color="#15152C"/>
<stop offset="0.959524" stop-color="#101123"/>
<stop offset="1" stop-color="#090D1B"/>
</linearGradient>
<linearGradient id="paint15_linear_2_1939" x1="89.0353" y1="-0.570722" x2="88.8418" y2="48.0004" gradientUnits="userSpaceOnUse">
<stop stop-color="#6EC3C0"/>
<stop offset="0.0904762" stop-color="#72C4BD"/>
<stop offset="0.277381" stop-color="#7AC6B9"/>
<stop offset="0.327381" stop-color="#7DC7B7"/>
<stop offset="0.430952" stop-color="#83C8B4"/>
<stop offset="0.496429" stop-color="#87C9B3"/>
<stop offset="0.59881" stop-color="#8ECBB1"/>
<stop offset="0.804762" stop-color="#9ACEAB"/>
<stop offset="0.909524" stop-color="#A1D0A9"/>
<stop offset="0.97619" stop-color="#A5D1A7"/>
<stop offset="1" stop-color="#A7D2A7"/>
</linearGradient>
<linearGradient id="paint16_linear_2_1939" x1="96.3553" y1="-0.553496" x2="96.1616" y2="48.0557" gradientUnits="userSpaceOnUse">
<stop stop-color="#6EC3C0"/>
<stop offset="0.0904762" stop-color="#72C4BD"/>
<stop offset="0.277381" stop-color="#7AC6B9"/>
<stop offset="0.327381" stop-color="#7DC7B7"/>
<stop offset="0.430952" stop-color="#83C8B4"/>
<stop offset="0.496429" stop-color="#87C9B3"/>
<stop offset="0.59881" stop-color="#8ECBB1"/>
<stop offset="0.804762" stop-color="#9ACEAB"/>
<stop offset="0.909524" stop-color="#A1D0A9"/>
<stop offset="0.97619" stop-color="#A5D1A7"/>
<stop offset="1" stop-color="#A7D2A7"/>
</linearGradient>
<linearGradient id="paint17_linear_2_1939" x1="95.1567" y1="-0.546334" x2="94.9632" y2="48.0248" gradientUnits="userSpaceOnUse">
<stop stop-color="#6EC3C0"/>
<stop offset="0.0904762" stop-color="#72C4BD"/>
<stop offset="0.277381" stop-color="#7AC6B9"/>
<stop offset="0.327381" stop-color="#7DC7B7"/>
<stop offset="0.430952" stop-color="#83C8B4"/>
<stop offset="0.496429" stop-color="#87C9B3"/>
<stop offset="0.59881" stop-color="#8ECBB1"/>
<stop offset="0.804762" stop-color="#9ACEAB"/>
<stop offset="0.909524" stop-color="#A1D0A9"/>
<stop offset="0.97619" stop-color="#A5D1A7"/>
<stop offset="1" stop-color="#A7D2A7"/>
</linearGradient>
<linearGradient id="paint18_linear_2_1939" x1="89.1302" y1="-0.570344" x2="88.9367" y2="48.0008" gradientUnits="userSpaceOnUse">
<stop stop-color="#6EC3C0"/>
<stop offset="0.0904762" stop-color="#72C4BD"/>
<stop offset="0.277381" stop-color="#7AC6B9"/>
<stop offset="0.327381" stop-color="#7DC7B7"/>
<stop offset="0.430952" stop-color="#83C8B4"/>
<stop offset="0.496429" stop-color="#87C9B3"/>
<stop offset="0.59881" stop-color="#8ECBB1"/>
<stop offset="0.804762" stop-color="#9ACEAB"/>
<stop offset="0.909524" stop-color="#A1D0A9"/>
<stop offset="0.97619" stop-color="#A5D1A7"/>
<stop offset="1" stop-color="#A7D2A7"/>
</linearGradient>
<linearGradient id="paint19_linear_2_1939" x1="92.8049" y1="-0.555703" x2="92.6114" y2="48.0154" gradientUnits="userSpaceOnUse">
<stop stop-color="#6EC3C0"/>
<stop offset="0.0904762" stop-color="#72C4BD"/>
<stop offset="0.277381" stop-color="#7AC6B9"/>
<stop offset="0.327381" stop-color="#7DC7B7"/>
<stop offset="0.430952" stop-color="#83C8B4"/>
<stop offset="0.496429" stop-color="#87C9B3"/>
<stop offset="0.59881" stop-color="#8ECBB1"/>
<stop offset="0.804762" stop-color="#9ACEAB"/>
<stop offset="0.909524" stop-color="#A1D0A9"/>
<stop offset="0.97619" stop-color="#A5D1A7"/>
<stop offset="1" stop-color="#A7D2A7"/>
</linearGradient>
<linearGradient id="paint20_linear_2_1939" x1="87.0238" y1="-0.578736" x2="86.8303" y2="47.9924" gradientUnits="userSpaceOnUse">
<stop stop-color="#6EC3C0"/>
<stop offset="0.0904762" stop-color="#72C4BD"/>
<stop offset="0.277381" stop-color="#7AC6B9"/>
<stop offset="0.327381" stop-color="#7DC7B7"/>
<stop offset="0.430952" stop-color="#83C8B4"/>
<stop offset="0.496429" stop-color="#87C9B3"/>
<stop offset="0.59881" stop-color="#8ECBB1"/>
<stop offset="0.804762" stop-color="#9ACEAB"/>
<stop offset="0.909524" stop-color="#A1D0A9"/>
<stop offset="0.97619" stop-color="#A5D1A7"/>
<stop offset="1" stop-color="#A7D2A7"/>
</linearGradient>
<linearGradient id="paint21_linear_2_1939" x1="40.0336" y1="37.9012" x2="-0.384705" y2="6.11719" gradientUnits="userSpaceOnUse">
<stop stop-color="#21294F"/>
<stop offset="0.158333" stop-color="#1F2547"/>
<stop offset="0.292857" stop-color="#1E2241"/>
<stop offset="0.414286" stop-color="#1B1E3B"/>
<stop offset="0.633333" stop-color="#171730"/>
<stop offset="0.704762" stop-color="#15152C"/>
<stop offset="0.794048" stop-color="#131328"/>
<stop offset="0.944048" stop-color="#0D0F1F"/>
<stop offset="1" stop-color="#090D1B"/>
</linearGradient>
<linearGradient id="paint22_linear_2_1939" x1="9.33032" y1="54.5626" x2="42.5182" y2="35.4835" gradientUnits="userSpaceOnUse">
<stop stop-color="#A7D2A7"/>
<stop offset="0.0404762" stop-color="#A2D1A8"/>
<stop offset="0.0690476" stop-color="#9ECFAA"/>
<stop offset="0.138095" stop-color="#95CDAE"/>
<stop offset="0.161905" stop-color="#92CCAF"/>
<stop offset="0.227381" stop-color="#89C9B2"/>
<stop offset="0.319048" stop-color="#7EC7B7"/>
<stop offset="0.354762" stop-color="#7AC6B9"/>
<stop offset="0.421429" stop-color="#74C5BC"/>
<stop offset="0.505952" stop-color="#6AC2C0"/>
<stop offset="0.534524" stop-color="#64C1C0"/>
<stop offset="0.564286" stop-color="#5FC0C1"/>
<stop offset="0.589286" stop-color="#5BBFC2"/>
<stop offset="0.641667" stop-color="#4FBDC4"/>
<stop offset="0.655952" stop-color="#4ABBC3"/>
<stop offset="0.679762" stop-color="#49B6C2"/>
<stop offset="0.732143" stop-color="#47ACC0"/>
<stop offset="0.77619" stop-color="#46A4BE"/>
<stop offset="0.784524" stop-color="#45A2BD"/>
<stop offset="0.79881" stop-color="#439EBC"/>
<stop offset="0.830952" stop-color="#4297BA"/>
<stop offset="0.841667" stop-color="#4095B9"/>
<stop offset="0.888095" stop-color="#418DB6"/>
<stop offset="0.916667" stop-color="#3F87B5"/>
<stop offset="0.995238" stop-color="#3A78B1"/>
<stop offset="1" stop-color="#3977B1"/>
</linearGradient>
<linearGradient id="paint23_linear_2_1939" x1="21.3623" y1="1.71484" x2="23.5669" y2="37.1272" gradientUnits="userSpaceOnUse">
<stop stop-color="#6EC3C0"/>
<stop offset="0.0904762" stop-color="#72C4BD"/>
<stop offset="0.277381" stop-color="#7AC6B9"/>
<stop offset="0.327381" stop-color="#7DC7B7"/>
<stop offset="0.430952" stop-color="#83C8B4"/>
<stop offset="0.496429" stop-color="#87C9B3"/>
<stop offset="0.59881" stop-color="#8ECBB1"/>
<stop offset="0.804762" stop-color="#9ACEAB"/>
<stop offset="0.909524" stop-color="#A1D0A9"/>
<stop offset="0.97619" stop-color="#A5D1A7"/>
<stop offset="1" stop-color="#A7D2A7"/>
</linearGradient>
<linearGradient id="paint24_linear_2_1939" x1="22.7095" y1="1.94457" x2="24.496" y2="30.6395" gradientUnits="userSpaceOnUse">
<stop stop-color="#6EC3C0"/>
<stop offset="0.0904762" stop-color="#72C4BD"/>
<stop offset="0.277381" stop-color="#7AC6B9"/>
<stop offset="0.327381" stop-color="#7DC7B7"/>
<stop offset="0.430952" stop-color="#83C8B4"/>
<stop offset="0.496429" stop-color="#87C9B3"/>
<stop offset="0.59881" stop-color="#8ECBB1"/>
<stop offset="0.804762" stop-color="#9ACEAB"/>
<stop offset="0.909524" stop-color="#A1D0A9"/>
<stop offset="0.97619" stop-color="#A5D1A7"/>
<stop offset="1" stop-color="#A7D2A7"/>
</linearGradient>
<linearGradient id="paint25_linear_2_1939" x1="15.3774" y1="0.5866" x2="17.6913" y2="37.7532" gradientUnits="userSpaceOnUse">
<stop stop-color="#6EC3C0"/>
<stop offset="0.0904762" stop-color="#72C4BD"/>
<stop offset="0.277381" stop-color="#7AC6B9"/>
<stop offset="0.327381" stop-color="#7DC7B7"/>
<stop offset="0.430952" stop-color="#83C8B4"/>
<stop offset="0.496429" stop-color="#87C9B3"/>
<stop offset="0.59881" stop-color="#8ECBB1"/>
<stop offset="0.804762" stop-color="#9ACEAB"/>
<stop offset="0.909524" stop-color="#A1D0A9"/>
<stop offset="0.97619" stop-color="#A5D1A7"/>
<stop offset="1" stop-color="#A7D2A7"/>
</linearGradient>
<linearGradient id="paint26_linear_2_1939" x1="14.0927" y1="0.876039" x2="16.3646" y2="37.369" gradientUnits="userSpaceOnUse">
<stop stop-color="#6EC3C0"/>
<stop offset="0.0904762" stop-color="#72C4BD"/>
<stop offset="0.277381" stop-color="#7AC6B9"/>
<stop offset="0.327381" stop-color="#7DC7B7"/>
<stop offset="0.430952" stop-color="#83C8B4"/>
<stop offset="0.496429" stop-color="#87C9B3"/>
<stop offset="0.59881" stop-color="#8ECBB1"/>
<stop offset="0.804762" stop-color="#9ACEAB"/>
<stop offset="0.909524" stop-color="#A1D0A9"/>
<stop offset="0.97619" stop-color="#A5D1A7"/>
<stop offset="1" stop-color="#A7D2A7"/>
</linearGradient>
<linearGradient id="paint27_linear_2_1939" x1="15.6273" y1="0.690006" x2="17.9276" y2="37.6398" gradientUnits="userSpaceOnUse">
<stop stop-color="#6EC3C0"/>
<stop offset="0.0904762" stop-color="#72C4BD"/>
<stop offset="0.277381" stop-color="#7AC6B9"/>
<stop offset="0.327381" stop-color="#7DC7B7"/>
<stop offset="0.430952" stop-color="#83C8B4"/>
<stop offset="0.496429" stop-color="#87C9B3"/>
<stop offset="0.59881" stop-color="#8ECBB1"/>
<stop offset="0.804762" stop-color="#9ACEAB"/>
<stop offset="0.909524" stop-color="#A1D0A9"/>
<stop offset="0.97619" stop-color="#A5D1A7"/>
<stop offset="1" stop-color="#A7D2A7"/>
</linearGradient>
<linearGradient id="paint28_linear_2_1939" x1="7.93571" y1="8.7486" x2="37.5716" y2="27.429" gradientUnits="userSpaceOnUse">
<stop stop-color="#090D1B"/>
<stop offset="0.0821429" stop-color="#131328"/>
<stop offset="0.140476" stop-color="#17172F"/>
<stop offset="0.2" stop-color="#1A1B37"/>
<stop offset="0.334524" stop-color="#1F2547"/>
<stop offset="0.430952" stop-color="#212C55"/>
<stop offset="0.517857" stop-color="#1F3563"/>
<stop offset="0.575" stop-color="#1C3B6E"/>
<stop offset="0.589286" stop-color="#1D3E70"/>
<stop offset="0.625" stop-color="#1F4276"/>
<stop offset="0.655952" stop-color="#22477C"/>
<stop offset="0.733333" stop-color="#295288"/>
<stop offset="0.763095" stop-color="#2A558C"/>
<stop offset="0.795238" stop-color="#2C5B92"/>
<stop offset="0.828571" stop-color="#2F5F97"/>
<stop offset="0.85" stop-color="#30629A"/>
<stop offset="0.90119" stop-color="#3369A2"/>
<stop offset="0.929762" stop-color="#356DA7"/>
<stop offset="1" stop-color="#3977B1"/>
</linearGradient>
<linearGradient id="paint29_linear_2_1939" x1="12.2864" y1="92.893" x2="42.8919" y2="41.2127" gradientUnits="userSpaceOnUse">
<stop stop-color="#6EC3C0"/>
<stop offset="0.0511905" stop-color="#69C2C0"/>
<stop offset="0.155952" stop-color="#5FC0C1"/>
<stop offset="0.207143" stop-color="#5BBFC2"/>
<stop offset="0.307143" stop-color="#4FBDC4"/>
<stop offset="0.335714" stop-color="#4ABBC3"/>
<stop offset="0.378571" stop-color="#49B6C2"/>
<stop offset="0.471429" stop-color="#47ADC0"/>
<stop offset="0.566667" stop-color="#46A4BE"/>
<stop offset="0.584524" stop-color="#45A1BD"/>
<stop offset="0.610714" stop-color="#439EBC"/>
<stop offset="0.67381" stop-color="#4297BA"/>
<stop offset="0.695238" stop-color="#4094B9"/>
<stop offset="0.769048" stop-color="#418EB7"/>
<stop offset="0.969048" stop-color="#3C7AB2"/>
<stop offset="1" stop-color="#3977B1"/>
</linearGradient>
<linearGradient id="paint30_linear_2_1939" x1="20.3729" y1="78.0306" x2="59.6886" y2="38.9944" gradientUnits="userSpaceOnUse">
<stop stop-color="#3977B1"/>
<stop offset="0.117857" stop-color="#3469A0"/>
<stop offset="0.214286" stop-color="#2E5D91"/>
<stop offset="0.272619" stop-color="#2B578A"/>
<stop offset="0.328571" stop-color="#275082"/>
<stop offset="0.369048" stop-color="#254C7C"/>
<stop offset="0.394048" stop-color="#234878"/>
<stop offset="0.455952" stop-color="#20416F"/>
<stop offset="0.547619" stop-color="#1A3660"/>
<stop offset="0.571429" stop-color="#1A345D"/>
<stop offset="0.62381" stop-color="#1D2E54"/>
<stop offset="0.684524" stop-color="#1E294B"/>
<stop offset="0.75" stop-color="#1C2341"/>
<stop offset="0.84881" stop-color="#191A34"/>
<stop offset="0.89881" stop-color="#15152C"/>
<stop offset="0.959524" stop-color="#101123"/>
<stop offset="1" stop-color="#090D1B"/>
</linearGradient>
<linearGradient id="paint31_linear_2_1939" x1="20.5048" y1="54.7459" x2="57.8712" y2="33.1522" gradientUnits="userSpaceOnUse">
<stop stop-color="#3977B1"/>
<stop offset="0.117857" stop-color="#3469A0"/>
<stop offset="0.214286" stop-color="#2E5D91"/>
<stop offset="0.272619" stop-color="#2B578A"/>
<stop offset="0.328571" stop-color="#275082"/>
<stop offset="0.369048" stop-color="#254C7C"/>
<stop offset="0.394048" stop-color="#234878"/>
<stop offset="0.455952" stop-color="#20416F"/>
<stop offset="0.547619" stop-color="#1A3660"/>
<stop offset="0.571429" stop-color="#1A345D"/>
<stop offset="0.62381" stop-color="#1D2E54"/>
<stop offset="0.684524" stop-color="#1E294B"/>
<stop offset="0.75" stop-color="#1C2341"/>
<stop offset="0.84881" stop-color="#191A34"/>
<stop offset="0.89881" stop-color="#15152C"/>
<stop offset="0.959524" stop-color="#101123"/>
<stop offset="1" stop-color="#090D1B"/>
</linearGradient>
<linearGradient id="paint32_linear_2_1939" x1="13.456" y1="43.4745" x2="54.1385" y2="34.4532" gradientUnits="userSpaceOnUse">
<stop stop-color="#3977B1"/>
<stop offset="0.117857" stop-color="#3469A0"/>
<stop offset="0.214286" stop-color="#2E5D91"/>
<stop offset="0.272619" stop-color="#2B578A"/>
<stop offset="0.328571" stop-color="#275082"/>
<stop offset="0.369048" stop-color="#254C7C"/>
<stop offset="0.394048" stop-color="#234878"/>
<stop offset="0.455952" stop-color="#20416F"/>
<stop offset="0.547619" stop-color="#1A3660"/>
<stop offset="0.571429" stop-color="#1A345D"/>
<stop offset="0.62381" stop-color="#1D2E54"/>
<stop offset="0.684524" stop-color="#1E294B"/>
<stop offset="0.75" stop-color="#1C2341"/>
<stop offset="0.84881" stop-color="#191A34"/>
<stop offset="0.89881" stop-color="#15152C"/>
<stop offset="0.959524" stop-color="#101123"/>
<stop offset="1" stop-color="#090D1B"/>
</linearGradient>
<linearGradient id="paint33_linear_2_1939" x1="18.6963" y1="36.1525" x2="49.1191" y2="32.9402" gradientUnits="userSpaceOnUse">
<stop stop-color="#3977B1"/>
<stop offset="0.117857" stop-color="#3469A0"/>
<stop offset="0.214286" stop-color="#2E5D91"/>
<stop offset="0.272619" stop-color="#2B578A"/>
<stop offset="0.328571" stop-color="#275082"/>
<stop offset="0.369048" stop-color="#254C7C"/>
<stop offset="0.394048" stop-color="#234878"/>
<stop offset="0.455952" stop-color="#20416F"/>
<stop offset="0.547619" stop-color="#1A3660"/>
<stop offset="0.571429" stop-color="#1A345D"/>
<stop offset="0.62381" stop-color="#1D2E54"/>
<stop offset="0.684524" stop-color="#1E294B"/>
<stop offset="0.75" stop-color="#1C2341"/>
<stop offset="0.84881" stop-color="#191A34"/>
<stop offset="0.89881" stop-color="#15152C"/>
<stop offset="0.959524" stop-color="#101123"/>
<stop offset="1" stop-color="#090D1B"/>
</linearGradient>
</defs>
</svg>
