<svg width="27" height="32" viewBox="0 0 27 32" fill="none" xmlns="http://www.w3.org/2000/svg">
<path d="M26.9256 6.03209C26.9266 4.89809 26.2376 3.92209 25.1696 3.54409L16.6946 0.554092C14.8756 -0.0889072 12.8726 -0.0909061 11.0546 0.546093L2.47762 3.54809C1.40562 3.92309 0.713623 4.89809 0.713623 6.03309C0.713623 7.17009 1.40662 8.14509 2.47962 8.51909L5.94762 9.72909V11.9331C5.94762 16.2711 9.47462 19.7981 13.8126 19.7981C18.1496 19.7981 21.6776 16.2711 21.6776 11.9331V9.72909L24.2986 8.81409V14.5541C24.2986 15.2771 24.8856 15.8651 25.6096 15.8651C26.3336 15.8651 26.9206 15.2771 26.9206 14.5541V6.06309C26.9206 6.05209 26.9256 6.04409 26.9256 6.03209ZM19.0556 11.9331C19.0556 14.8251 16.7036 17.1771 13.8126 17.1771C10.9206 17.1771 8.56962 14.8251 8.56962 11.9331V10.6441L11.0086 11.4941C11.9116 11.8091 12.8616 11.9671 13.8106 11.9671C14.7596 11.9671 15.7096 11.8091 16.6126 11.4941L19.0556 10.6421V11.9321V11.9331ZM15.7496 9.02009C14.5006 9.45609 13.1226 9.45609 11.8736 9.02009L3.34462 6.02209L11.9226 3.02009C12.5486 2.80109 13.2056 2.69109 13.8646 2.69109C14.5276 2.69109 15.1916 2.80209 15.8236 3.02509L24.2976 6.03709L15.7496 9.01809V9.02009ZM24.2406 29.8951C24.4556 30.5861 24.0696 31.3211 23.3786 31.5361C23.2486 31.5771 23.1176 31.5951 22.9896 31.5951C22.4306 31.5951 21.9136 31.2351 21.7376 30.6721C20.7056 27.3561 17.4486 25.0401 13.8136 25.0401C10.1786 25.0401 6.92162 27.3561 5.88962 30.6721C5.67462 31.3651 4.93562 31.7491 4.24862 31.5351C3.55762 31.3201 3.17162 30.5851 3.38662 29.8941C4.75462 25.4921 9.04262 22.4181 13.8136 22.4181C18.5846 22.4181 22.8726 25.4921 24.2406 29.8941V29.8951Z" fill="white"/>
</svg>
