<svg width="29" height="27" viewBox="0 0 29 27" fill="none" xmlns="http://www.w3.org/2000/svg">
<path d="M24.6379 0.830307H3.90993C2.00593 0.830307 0.455933 2.38031 0.455933 4.28531V26.1643H28.0929V4.28531C28.0929 2.38031 26.5429 0.830307 24.6379 0.830307ZM3.90993 3.13331H24.6379C25.2739 3.13331 25.7889 3.65031 25.7889 4.28531V8.89131H2.75893V4.28531C2.75893 3.65031 3.27493 3.13331 3.90993 3.13331ZM2.75893 11.1943H25.7899V23.8613H2.75893V11.1943ZM3.90993 6.01231C3.90993 5.05831 4.68393 4.28531 5.63793 4.28531C6.59093 4.28531 7.36493 5.05831 7.36493 6.01231C7.36493 6.96531 6.59093 7.73931 5.63793 7.73931C4.68393 7.73931 3.90993 6.96531 3.90993 6.01231ZM8.51593 6.01231C8.51593 5.05831 9.28993 4.28531 10.2439 4.28531C11.1969 4.28531 11.9709 5.05831 11.9709 6.01231C11.9709 6.96531 11.1969 7.73931 10.2439 7.73931C9.28993 7.73931 8.51593 6.96531 8.51593 6.01231ZM11.9739 11.6193L13.6029 13.2473L10.5029 16.3473C10.0969 16.7523 9.57093 16.9553 9.04493 16.9553C8.53693 16.9553 8.02793 16.7663 7.62893 16.3873L5.98193 14.8283L7.56493 13.1563L9.03993 14.5533L11.9739 11.6193ZM11.9739 17.3763L13.6029 19.0053L10.5029 22.1053C10.0969 22.5103 9.57093 22.7133 9.04493 22.7133C8.53693 22.7133 8.02793 22.5243 7.62893 22.1453L5.98193 20.5853L7.56493 18.9143L9.03993 20.3103L11.9739 17.3763ZM16.0499 13.4973H22.3349V15.8003H13.6979L16.0499 13.4973ZM16.0499 19.2553H22.3349V21.5583H13.6979L16.0499 19.2553Z" fill="#20263E"/>
</svg>
