<svg width="60" height="29" viewBox="0 0 60 29" fill="none" xmlns="http://www.w3.org/2000/svg">
<path d="M22.4891 9.18671C23.3711 9.18671 24.0871 8.47071 24.0871 7.58871V5.45871C24.0871 4.57671 23.3711 3.86071 22.4891 3.86071H21.9561V2.79471C21.9561 1.62071 21.0011 0.664711 19.8261 0.664711H3.8471C2.0851 0.664711 0.6521 2.09871 0.6521 3.86071V23.0347C0.6521 24.7967 2.0851 26.2307 3.8471 26.2307H21.9561V21.9697H22.4891C23.3711 21.9697 24.0871 21.2537 24.0871 20.3717V18.2407C24.0871 17.3587 23.3711 16.6437 22.4891 16.6437H21.9561V15.5777H22.4891C23.3711 15.5777 24.0871 14.8627 24.0871 13.9797V11.8497C24.0871 10.9677 23.3711 10.2517 22.4891 10.2517H21.9561V9.18671H22.4891ZM19.8261 19.8387H7.0431V2.79471H19.8261V19.8387ZM3.8471 2.79471H4.9131V19.8387H3.8471C3.4731 19.8387 3.1151 19.9037 2.7821 20.0227V3.86071C2.7821 3.27271 3.2591 2.79471 3.8471 2.79471ZM3.8471 24.0997C3.2591 24.0997 2.7821 23.6227 2.7821 23.0347C2.7821 22.4467 3.2591 21.9697 3.8471 21.9697H19.8261V24.0997H3.8471Z" fill="white"/>
<path d="M48.0288 20.4353C48.6048 21.0893 48.8368 21.9873 48.7048 23.0373L48.0718 26.3883C47.7718 27.7583 46.3718 28.7383 45.2018 28.7383C44.0318 28.7383 42.6608 27.7583 42.3678 26.4223L41.7408 23.1073C41.5958 21.9883 41.8298 21.0893 42.4048 20.4363C43.0228 19.7363 43.9638 19.3813 45.2028 19.3813C46.4698 19.3813 47.4108 19.7373 48.0288 20.4363V20.4353ZM47.5408 14.7013C47.5408 13.4093 46.4938 12.3623 45.2018 12.3623C43.9088 12.3623 42.8618 13.4093 42.8618 14.7013C42.8618 15.9943 43.9088 17.0403 45.2018 17.0403C46.4938 17.0403 47.5408 15.9943 47.5408 14.7013ZM45.2018 0.66428C37.4618 0.66428 31.1648 6.96128 31.1648 14.7013C31.1648 19.4633 33.5498 23.8613 37.5438 26.4673C38.0848 26.8193 38.8098 26.6673 39.1628 26.1263C39.5158 25.5853 39.3628 24.8603 38.8218 24.5073C35.4918 22.3363 33.5048 18.6703 33.5048 14.7013C33.5048 8.25128 38.7518 3.00428 45.2018 3.00428C51.6518 3.00428 56.8988 8.25128 56.8988 14.7013C56.8988 18.6703 54.9118 22.3353 51.5808 24.5073C51.0408 24.8603 50.8878 25.5853 51.2408 26.1263C51.4638 26.4703 51.8398 26.6573 52.2208 26.6573C52.4408 26.6573 52.6608 26.5953 52.8588 26.4673C56.8528 23.8613 59.2368 19.4643 59.2368 14.7013C59.2378 6.96128 52.9418 0.66428 45.2018 0.66428ZM52.0248 19.2293C52.9178 17.8863 53.3898 16.3203 53.3898 14.7013C53.3898 10.1873 49.7168 6.51328 45.2018 6.51328C40.6868 6.51328 37.0138 10.1873 37.0138 14.7013C37.0138 16.2643 37.4838 17.8093 38.3738 19.1723C38.7268 19.7133 39.4508 19.8653 39.9928 19.5113C40.5328 19.1583 40.6858 18.4343 40.3328 17.8923C39.6918 16.9113 39.3538 15.8083 39.3538 14.7003C39.3538 11.4753 41.9778 8.85128 45.2028 8.85128C48.4278 8.85128 51.0518 11.4753 51.0518 14.7003C51.0518 15.8563 50.7148 16.9743 50.0768 17.9333C49.7188 18.4713 49.8648 19.1973 50.4038 19.5553C50.6018 19.6883 50.8278 19.7513 51.0498 19.7513C51.4288 19.7513 51.7998 19.5683 52.0248 19.2293Z" fill="white"/>
</svg>
