<svg width="33" height="28" viewBox="0 0 33 28" fill="none" xmlns="http://www.w3.org/2000/svg">
<path d="M28.4471 27.1346H4.51412C2.31112 27.1346 0.526123 25.3486 0.526123 23.1456V11.1796H11.1621V13.8386C11.1621 15.3076 12.3531 16.4976 13.8221 16.4976H19.1401C20.6081 16.4976 21.7991 15.3076 21.7991 13.8386V11.1796H32.4361V23.1456C32.4361 25.3486 30.6501 27.1346 28.4471 27.1346ZM3.18512 13.8386V23.1456C3.18512 23.8806 3.78012 24.4756 4.51412 24.4756H28.4471C29.1811 24.4756 29.7771 23.8806 29.7771 23.1456V13.8386H24.4581C24.4581 16.7756 22.0771 19.1566 19.1401 19.1566H13.8221C10.8841 19.1566 8.50312 16.7756 8.50312 13.8386H3.18512Z" fill="#20263E"/>
<path d="M3.18481 5.86145H29.7768V8.52039H3.18481V5.86145Z" fill="#20263E"/>
<path d="M3.18481 0.542603H29.7768V3.20154H3.18481V0.542603Z" fill="#20263E"/>
</svg>
