<svg width="32" height="32" viewBox="0 0 32 32" fill="none" xmlns="http://www.w3.org/2000/svg">
<path d="M30.5549 14.6615C29.0179 11.1445 27.5719 7.82254 26.0349 5.92154C22.8569 1.67454 17.8289 -0.422462 12.5529 0.306538C6.05292 1.19254 0.894925 6.61154 0.308925 13.1635C-0.0430749 16.9805 1.11593 20.7055 3.56493 23.6495C3.94293 24.1055 4.16392 24.6915 4.16392 25.2905V31.4255H21.0979V27.5185H24.0289C25.9829 27.5185 27.6499 26.0595 27.8979 24.1185L28.4839 19.7025H31.5189V16.8235C31.5189 16.8235 30.8549 15.2995 30.5679 14.6615H30.5549ZM26.1779 17.0975L25.2919 23.7795C25.2009 24.4315 24.6539 24.9125 24.0029 24.9125H18.4669V28.8205H6.75593V25.2905C6.75593 24.0795 6.32693 22.9065 5.55793 21.9825C3.56493 19.5855 2.61393 16.5375 2.90093 13.3985C3.38293 8.03154 7.58993 3.61554 12.9179 2.87254C17.2289 2.27354 21.3589 4.00654 23.9899 7.51054C25.3309 9.17754 26.7769 12.4865 28.1839 15.6905C28.3929 16.1595 28.5879 16.6155 28.7959 17.0845H26.2039L26.1779 17.0975ZM15.8619 11.8875H19.7689V14.4925H15.8619V18.4005H13.2559V14.4925H9.34893V11.8875H13.2559V7.97954H15.8619V11.8875Z" fill="#20263E"/>
</svg>
